<svg xmlns="http://www.w3.org/2000/svg" aria-hidden="true" style="position:absolute;width:0;height:0;overflow:hidden">
    <defs>
        <symbol id="icon-burger" viewBox="0 0 32 32">
            <path d="M4 5.33h24V8H4V5.33zm8 9.34h16v2.66H12v-2.66zM4 24h24v2.67H4V24z"/>
        </symbol>
        <symbol id="icon-logo" viewBox="0 0 41 32">
            <path d="M16.24 31.14v-4.91l-.22-.92v-8.39c0-1.78-.53-3.16-1.58-4.12-1.02-1-2.57-1.5-4.65-1.5-1.38 0-2.72.24-4.04.7a10.1 10.1 0 0 0-3.34 1.8L.66 10.65c1.2-.96 2.63-1.7 4.3-2.19a17.8 17.8 0 0 1 5.31-.79c3.2 0 5.65.77 7.38 2.33s2.59 3.92 2.59 7.1v14.05h-4zm-7.64.27c-1.72 0-3.24-.3-4.56-.88a7.05 7.05 0 0 1-2.99-2.42 6.78 6.78 0 0 1-.18-6.98 6.38 6.38 0 0 1 2.95-2.45c1.37-.62 3.22-.93 5.53-.93h7.37v3.03h-7.2c-2.1 0-3.52.35-4.25 1.06s-1.1 1.55-1.1 2.54c0 1.14.45 2.07 1.36 2.77.9.67 2.17 1 3.78 1 1.58 0 2.95-.34 4.12-1.04a5.96 5.96 0 0 0 2.6-3.08l.83 2.9a6.66 6.66 0 0 1-2.94 3.3c-1.4.78-3.18 1.18-5.32 1.18z"/>
            <path d="M29.72 31.4c-2.49 0-4.68-.5-6.59-1.53a11.27 11.27 0 0 1-4.39-4.21c-1.02-1.79-1.53-3.84-1.53-6.15s.5-4.36 1.49-6.14a10.97 10.97 0 0 1 4.17-4.17 11.87 11.87 0 0 1 6.01-1.54c2.26 0 4.25.5 5.97 1.5s3.08 2.4 4.04 4.2a12.69 12.69 0 0 1 1.4 7.56H20.5v-3.03H38.1l-1.71 1.05c.03-1.5-.28-2.82-.92-4s-1.54-2.07-2.68-2.72a7.4 7.4 0 0 0-3.9-1c-1.47 0-2.77.33-3.91 1A6.78 6.78 0 0 0 22.3 15a8.24 8.24 0 0 0-.97 4.04v.7c0 1.55.35 2.94 1.05 4.17.74 1.2 1.75 2.14 3.03 2.8s2.77 1.02 4.44 1.02c1.37 0 2.61-.24 3.73-.7a8.18 8.18 0 0 0 2.98-2.11l2.33 2.72a10.14 10.14 0 0 1-3.95 2.8c-1.55.65-3.3.98-5.23.98zM37.31 3.3H21.95V0H37.3v3.3z"/>
        </symbol>
        <symbol id="icon-tel" viewBox="0 0 32 32">
            <path d="M29.28 6.06 25.4 2.2a2.5 2.5 0 0 0-3.55 0l-4.17 4.17a2.5 2.5 0 0 0 0 3.55l3.26 3.26a14.78 14.78 0 0 1-7.77 7.78l-3.25-3.26a2.5 2.5 0 0 0-3.55 0l-4.18 4.16a2.5 2.5 0 0 0 0 3.56l3.87 3.87a4.35 4.35 0 0 0 3.76 1.2c4.81-.78 9.6-3.35 13.45-7.2 3.86-3.86 6.42-8.64 7.22-13.46a4.34 4.34 0 0 0-1.22-3.76zM27.9 9.4c-.71 4.28-3.02 8.56-6.49 12.03S13.68 27.2 9.4 27.91c-.54.09-1.1-.1-1.49-.48l-3.8-3.8 4.03-4.03 4.4 4.4.78-.3A17.48 17.48 0 0 0 23.7 13.31l.29-.79-4.4-4.38 4.03-4.04 3.8 3.8c.4.4.58.95.49 1.49z"/>
        </symbol>
        <symbol id="icon-btn" viewBox="0 0 29 32">
            <path d="M19.85 13.31a.21.21 0 0 0-.17-.24l-1.88-.3a.21.21 0 1 0-.06.42l1.66.27-.26 1.66a.21.21 0 1 0 .41.07l.3-1.87zm-9.62 7.07 9.54-6.93-.25-.34-9.54 6.93.25.34zM24.7 17.05c.03-.23.09-.45.17-.65.1-.2.2-.36.31-.47l.29.2a1.72 1.72 0 0 0-.44.99c-.03.27 0 .47.06.6.08.13.18.2.33.22.1 0 .19-.02.25-.08a.6.6 0 0 0 .17-.24l.12-.36.12-.4c.05-.12.1-.24.17-.34.07-.1.15-.18.26-.24.1-.05.24-.07.4-.05.16.01.3.07.4.17s.2.24.25.42c.06.18.07.39.04.63a2.09 2.09 0 0 1-.38.98l-.29-.2a1.64 1.64 0 0 0 .34-.82c.03-.25 0-.45-.07-.58a.4.4 0 0 0-.32-.22.34.34 0 0 0-.27.07.76.76 0 0 0-.17.25c-.05.1-.09.23-.13.35a5.02 5.02 0 0 1-.29.74.62.62 0 0 1-.64.3.7.7 0 0 1-.42-.18.9.9 0 0 1-.23-.44c-.05-.18-.06-.4-.03-.65zM26.67 21.1c-.09.22-.2.4-.35.52a.94.94 0 0 1-.54.24 1.4 1.4 0 0 1-.7-.12l-1.54-.62.14-.36 1.52.6c.28.12.52.13.72.05.2-.08.35-.25.45-.5.08-.2.1-.37.09-.55a.84.84 0 0 0-.2-.45 1.19 1.19 0 0 0-.48-.32l-1.4-.56.15-.36 3.77 1.5-.15.36-1.83-.73.16-.02c.16.17.26.36.3.6.03.22 0 .47-.1.72zM22.51 22.45c.18-.22.39-.37.62-.47a1.43 1.43 0 0 1 1.45.26c.22.18.38.39.47.63s.11.48.07.72c-.05.25-.16.48-.33.7-.18.22-.4.38-.62.47-.24.1-.48.12-.73.08a1.5 1.5 0 0 1-.72-.33 1.5 1.5 0 0 1-.46-.63c-.1-.23-.12-.48-.08-.73.05-.25.16-.49.34-.7zm.27.21a1 1 0 0 0-.18 1.05c.08.19.2.35.37.5.18.13.36.22.55.25.2.04.37.02.54-.04.18-.07.33-.18.46-.34a1.05 1.05 0 0 0 .18-1.05c-.07-.18-.2-.34-.37-.49a1.2 1.2 0 0 0-.55-.26 1.06 1.06 0 0 0-.55.05c-.17.07-.32.18-.45.33zM19.98 24.74c.2-.13.42-.21.65-.23.24-.01.46.04.68.15.22.11.42.3.6.56s.27.52.29.76c.02.25-.02.47-.12.68s-.26.38-.47.52c-.23.15-.47.23-.71.25a1.3 1.3 0 0 1-.72-.15 1.52 1.52 0 0 1-.58-.52c-.16-.25-.25-.5-.27-.74s.03-.5.14-.72c.11-.22.28-.4.51-.56zm.66-1.68 2.19 3.27-.31.2-.48-.71-.3-.5-.36-.45-1.06-1.6.32-.21zm-.45 1.95c-.17.12-.3.26-.38.42-.08.17-.11.35-.1.54.02.2.1.39.21.57s.28.32.45.4a1.05 1.05 0 0 0 1.07-.06 1.05 1.05 0 0 0 .48-.96c-.02-.2-.09-.38-.21-.57s-.27-.32-.44-.41a1.05 1.05 0 0 0-.54-.12 1.1 1.1 0 0 0-.54.2zM16.25 29.19c-.23.03-.44.02-.62-.04a.92.92 0 0 1-.48-.34 1.4 1.4 0 0 1-.25-.66l-.26-1.65.38-.06.25 1.61c.05.3.16.52.34.65.17.13.39.17.66.13.2-.03.37-.1.51-.2s.23-.24.3-.4c.05-.17.06-.36.03-.58l-.24-1.5.39-.05.44 2.84-.37.05-.12-.77.08.13c-.06.22-.18.4-.36.55-.18.15-.4.25-.68.29zM12.94 26.3c.27.05.5.15.71.3a1.42 1.42 0 0 1 .52 1.37c-.05.29-.15.53-.3.73s-.36.34-.6.43c-.23.09-.48.12-.76.07a1.5 1.5 0 0 1-.72-.29c-.2-.15-.35-.35-.44-.58-.1-.24-.12-.5-.08-.78.04-.29.14-.53.3-.73.16-.2.35-.35.6-.44.23-.09.49-.11.77-.07zm-.05.35a1.1 1.1 0 0 0-.57.05 1 1 0 0 0-.43.34c-.12.16-.2.34-.23.56-.03.23-.01.43.05.6.07.19.17.33.32.45.15.11.32.19.52.22a1.06 1.06 0 0 0 1-.4c.12-.14.2-.33.23-.56a1.2 1.2 0 0 0-.06-.6 1.05 1.05 0 0 0-.32-.45 1.07 1.07 0 0 0-.51-.21zM10.54 25.82l-.42 3.04-.33-.18.41-2.8.15.07-2.17 1.86-.29-.16.4-2.81.14.08-2.15 1.86-.32-.17 2.33-2 .33.17-.35 2.66-.1-.06 2.05-1.74.32.18zM5.94 22.2c.14.19.24.39.32.6.06.21.1.4.08.55l-.35.04a1.69 1.69 0 0 0-.34-1.02c-.16-.22-.31-.36-.45-.4a.41.41 0 0 0-.39.05.3.3 0 0 0-.14.23.6.6 0 0 0 .05.3c.03.1.08.22.14.34l.18.37c.05.12.09.25.11.37.02.12 0 .24-.03.35a.7.7 0 0 1-.27.31c-.12.1-.26.14-.42.14s-.3-.04-.46-.14a1.6 1.6 0 0 1-.45-.44 2.08 2.08 0 0 1-.38-.98l.35-.05c0 .16.04.3.1.44.05.15.12.28.2.4.15.2.3.33.45.38a.4.4 0 0 0 .38-.05.34.34 0 0 0 .15-.23c.01-.1 0-.2-.03-.3a3.28 3.28 0 0 0-.15-.35 5.16 5.16 0 0 1-.28-.74.61.61 0 0 1 .27-.66.7.7 0 0 1 .44-.14c.15 0 .3.06.47.17.15.1.3.25.45.46zM1.75 20.53a1.3 1.3 0 0 1-.08-.62c.02-.2.1-.38.23-.53.14-.16.34-.29.6-.39l1.56-.57.14.36-1.53.56c-.29.11-.47.26-.56.46-.1.2-.1.42 0 .67.07.2.17.35.3.46.13.12.28.18.46.2.17.03.36 0 .56-.07l1.42-.53.14.37-3.81 1.4-.14-.36 1.85-.68-.1.12c-.23-.01-.44-.1-.62-.24a1.37 1.37 0 0 1-.42-.6zM3.92 16.76c.01.28-.03.53-.14.76a1.41 1.41 0 0 1-1.25.78c-.28.01-.54-.04-.77-.15s-.4-.28-.54-.5a1.49 1.49 0 0 1-.22-.73 1.5 1.5 0 0 1 .14-.77c.11-.23.28-.4.49-.54.21-.14.46-.22.75-.24.28-.01.54.04.77.15.22.12.4.28.54.5.14.21.22.46.23.74zm-.34.02a1 1 0 0 0-.58-.9 1.2 1.2 0 0 0-.6-.11c-.23 0-.42.07-.59.17a.97.97 0 0 0-.36.4c-.1.16-.13.35-.12.55a1.05 1.05 0 0 0 1.18 1.01c.22 0 .42-.07.59-.17.16-.1.28-.24.37-.4.08-.17.12-.35.1-.55zM4.24 13.35a1.29 1.29 0 0 1-.93.96c-.24.06-.51.05-.82-.02s-.54-.2-.72-.37c-.19-.16-.3-.36-.37-.58s-.06-.45 0-.7c.07-.26.19-.49.36-.66.17-.19.38-.31.62-.38.25-.07.5-.06.79 0 .28.08.51.2.7.37s.3.38.37.62.07.5 0 .76zm.64 1.69-3.81-.95.09-.37.84.21.54.18.58.09 1.86.46-.1.38zm-.98-1.75c.05-.2.05-.38 0-.56a1.04 1.04 0 0 0-.29-.47c-.14-.13-.32-.22-.54-.28s-.41-.05-.6 0-.34.14-.48.27c-.13.14-.22.3-.27.5s-.05.39 0 .57c.06.18.15.33.3.47.14.13.31.22.53.27s.42.06.6.01c.2-.05.35-.14.48-.27.13-.14.22-.3.27-.5zM4 7.58c.15-.18.31-.31.5-.4.17-.08.36-.1.57-.06.2.03.42.14.63.31L7 8.48l-.24.3-1.27-1.02c-.24-.2-.46-.27-.68-.25a.84.84 0 0 0-.58.34c-.13.16-.21.33-.24.5a.84.84 0 0 0 .05.5c.07.15.2.3.36.44l1.18.95-.25.3-2.23-1.8.23-.3.61.5-.15-.05c-.1-.2-.14-.41-.1-.64.03-.23.13-.46.31-.67zM8.35 7.51a1.43 1.43 0 0 1-2.04-.4 1.43 1.43 0 0 1 .4-2.03c.24-.15.48-.24.73-.26.25-.02.5.02.72.13.23.11.42.29.59.53.15.23.24.48.26.74.02.25-.02.49-.14.72-.11.22-.29.42-.52.57zm-.2-.28c.18-.12.3-.26.39-.42a1 1 0 0 0 .1-.54c-.02-.2-.1-.39-.22-.57a1.19 1.19 0 0 0-.45-.41.98.98 0 0 0-.53-.11c-.19 0-.36.07-.53.18a1.03 1.03 0 0 0-.48.96c.01.2.09.39.21.57.13.19.28.32.45.41.17.09.35.13.54.12.18-.02.36-.08.53-.2zM10.5 6.24 8.76 3.7l.37-.09 1.58 2.36-.16.04.35-2.83.33-.08 1.6 2.36-.16.04.34-2.83.35-.08-.38 3.05-.36.08-1.53-2.2.12-.03-.35 2.66-.36.09zM16.33 5.83a2.3 2.3 0 0 1-.63-.23c-.2-.12-.34-.23-.44-.36l.24-.26a1.73 1.73 0 0 0 .93.53c.27.06.47.06.6 0a.4.4 0 0 0 .26-.3.3.3 0 0 0-.05-.26.6.6 0 0 0-.23-.2l-.34-.15-.38-.16a1.56 1.56 0 0 1-.33-.2.75.75 0 0 1-.21-.28.7.7 0 0 1-.02-.41c.04-.15.1-.28.22-.39s.26-.17.44-.2.39-.03.63.03a2.1 2.1 0 0 1 .94.47l-.23.27a1.61 1.61 0 0 0-.78-.42c-.25-.05-.45-.05-.6.02a.4.4 0 0 0-.24.29c-.02.1-.01.2.04.27.06.08.13.14.23.2s.22.11.34.16a4.79 4.79 0 0 1 .7.36.62.62 0 0 1 .25.67.7.7 0 0 1-.24.4.9.9 0 0 1-.45.2c-.19.02-.4 0-.65-.05zM20.6 4.27c.21.11.37.25.48.4.12.17.18.35.18.56.01.2-.05.44-.18.68L20.3 7.4l-.34-.18.76-1.44c.14-.27.18-.51.11-.72-.06-.2-.21-.37-.45-.5a1.1 1.1 0 0 0-.54-.13.85.85 0 0 0-.47.15c-.15.1-.27.24-.37.44l-.7 1.34-.35-.18 1.89-3.6.35.18-.92 1.75v-.17c.18-.14.38-.21.61-.22.24-.02.48.04.72.17zM21.54 8.53c-.2-.2-.33-.42-.4-.66a1.43 1.43 0 0 1 .4-1.4c.2-.21.42-.35.67-.41s.49-.07.73 0c.25.07.47.2.67.4.2.2.34.42.4.66.07.24.08.49.01.73-.06.24-.2.47-.4.67-.2.2-.43.34-.67.4-.25.07-.5.08-.74 0-.25-.06-.47-.2-.67-.39zm.24-.25a1 1 0 0 0 1.04.28c.19-.05.36-.16.52-.32.16-.16.26-.33.31-.52a.96.96 0 0 0 .01-.54c-.05-.18-.14-.34-.29-.48s-.3-.24-.49-.29c-.18-.04-.36-.04-.54 0s-.36.17-.52.33a1.2 1.2 0 0 0-.32.52c-.05.18-.05.37 0 .55.05.17.14.33.28.47zM23.57 11.22a1.35 1.35 0 0 1-.17-.67c.01-.24.08-.46.21-.66.14-.2.35-.39.62-.53s.54-.23.79-.22c.24 0 .47.06.66.18s.35.3.47.52c.13.24.2.48.19.73 0 .25-.07.48-.21.7a1.5 1.5 0 0 1-.58.52c-.26.14-.52.2-.77.2s-.48-.08-.7-.21a1.44 1.44 0 0 1-.5-.56zm-1.61-.82 3.47-1.85.17.32-.76.41-.52.24-.49.32-1.69.9-.18-.34zm1.9.63c.1.18.23.32.38.42.16.1.34.15.53.15.2 0 .4-.05.6-.15a1.1 1.1 0 0 0 .6-.93c.01-.18-.03-.37-.13-.55-.1-.18-.22-.32-.39-.41-.16-.1-.33-.15-.53-.16-.19 0-.38.06-.58.16s-.34.24-.45.4c-.1.16-.16.34-.17.52 0 .2.05.37.14.55z"/>
        </symbol>
        <symbol id="icon-facebook" viewBox="0 0 32 32">
            <path fill="none" stroke="#fff" stroke-linecap="round" stroke-linejoin="round" stroke-width="2.29" d="M24 2.67h-4a6.66 6.66 0 0 0-6.67 6.66v4h-4v5.34h4v10.66h5.34V18.67h4L24 13.33h-5.33v-4A1.33 1.33 0 0 1 20 8h4V2.67z" style="stroke:var(--color1, #fff)"/>
        </symbol>
        <symbol id="icon-instagram" viewBox="0 0 32 32">
            <path fill="none" stroke="#fff" stroke-linecap="round" stroke-linejoin="round" stroke-width="2.29" d="M22.67 2.67H9.33a6.67 6.67 0 0 0-6.66 6.66v13.34a6.67 6.67 0 0 0 6.66 6.66h13.34a6.67 6.67 0 0 0 6.66-6.66V9.33a6.67 6.67 0 0 0-6.66-6.66z" style="stroke:var(--color1, #fff)"/>
            <path fill="none" stroke="#fff" stroke-linecap="round" stroke-linejoin="round" stroke-width="2.29" d="M21.33 15.16a5.34 5.34 0 1 1-10.55 1.56 5.34 5.34 0 0 1 10.55-1.56zM23.33 8.67h.02" style="stroke:var(--color1, #fff)"/>
        </symbol>
        <symbol id="icon-arrow-right" viewBox="0 0 32 32">
            <path d="m21.67 14.79 1.2.82H0v.64h22.73l-1.13.65.32.55 2.6-1.5-2.49-1.69-.36.53z"/>
        </symbol>
        <symbol id="icon-arrow-left" viewBox="0 0 32 32">
            <path d="m7.7 17.07-1.2-.82h22.88v-.64H6.64l1.14-.65-.32-.56-2.61 1.5 2.5 1.7.35-.53z"/>
        </symbol>
    </defs>
</svg>